<?xml version="1.0" encoding="utf-8"?>
<svg viewBox="72.766 62.553 332.766 331.49" xmlns="http://www.w3.org/2000/svg">
  <path xmlns="http://www.w3.org/2000/svg" fill-rule="evenodd" clip-rule="evenodd" d="M 311.067 332.408 C 311.97 331.496 312.701 330.526 312.97 329.584 C 313.499 327.954 311.948 325.445 311.58 324.817 C 311.159 324.099 310.705 323.488 310.345 322.714 C 309.694 321.303 309.546 319.83 310.102 318.349 C 311.171 315.508 313.853 313.848 316.581 312.857 C 318.699 312.093 320.912 311.383 322.948 310.428 C 326.348 308.831 329.786 305.845 332.167 302.966 C 337.578 296.42 341.902 288.551 345.465 280.857 C 347.38 276.725 349.131 272.473 350.265 268.052 C 351.51 263.19 351.625 257.623 351.018 252.644 C 350.441 247.919 349.706 242.561 348.066 238.098 C 346.641 234.219 343.982 232.325 339.745 233.084 C 337.23 233.533 334.745 234.121 332.242 234.616 C 329.839 235.094 327.35 235.482 325.002 236.183 C 321.123 237.342 318.673 239.89 316.912 243.45 C 314.89 247.537 313.091 251.731 310.957 255.763 C 308.869 259.705 306.696 263.601 304.521 267.493 C 302.366 271.352 299.965 275.065 297.894 278.969 C 296.898 280.852 296.104 282.709 295.982 284.863 C 295.846 287.259 296.524 289.356 297.25 291.607 C 298.748 296.267 300.205 300.942 301.5 305.666 C 302.114 307.905 302.56 310.303 303.435 312.449 C 303.861 313.492 304.605 314.578 305.161 315.572 C 306.861 318.618 307.551 321.633 305.486 324.768 C 303.166 328.284 299.293 329.703 295.895 331.824 C 291.751 334.407 287.8 337.289 283.606 339.797 C 279.258 342.399 274.751 344.797 270.172 346.966 C 266.659 348.629 261.069 350.416 259.087 353.984 C 258.789 354.52 258.716 355.905 258.67 356.519 C 258.606 357.341 258.54 358.167 258.369 358.978 C 257.755 361.918 253.63 363.035 251.252 363.505 C 251.154 363.536 251.055 363.566 250.957 363.591 C 248.382 364.272 244.918 364.385 241.625 364.402 C 234.705 364.44 229.141 363.409 222.719 363.105 C 219.835 362.966 216.608 362.772 213.469 362.213 C 207.511 361.15 202.63 359.87 197.402 358.074 C 194.688 357.142 192.217 356.318 190.667 354.746 C 189.046 353.104 189.903 350.297 192.046 349.637 C 193.66 349.138 196.889 350.589 198.294 351.015 C 204.394 352.866 209.955 354.366 217.037 355.56 C 221.237 356.266 225.581 357.344 230.829 357.344 C 233.602 357.344 236.092 357.263 238.213 356.938 C 240.608 356.573 242.882 355.125 243.487 352.799 C 243.965 350.969 241.917 349.26 240.568 348.093 C 239.226 346.934 237.709 346.334 236.185 345.659 C 229.695 342.783 224.22 339.817 218.497 336.084 C 215.606 334.199 212.55 332.547 209.41 331.539 C 205.874 330.404 201.593 330.537 197.077 330.242 C 188.962 329.709 180.591 328.408 173.466 326.589 C 171.67 326.132 169.292 325.506 167.624 326.265 C 165.536 327.216 163.656 329.631 164.947 332.188 C 165.593 333.466 166.853 334.764 167.951 336.003 C 168.721 336.872 170.923 338.946 170.627 340.466 C 170.303 342.129 168.762 343.939 166.732 343.71 C 165.373 343.56 163.516 342.331 162.187 341.52 C 152.49 335.583 144.858 327.727 137.683 319.288 C 121.486 300.24 109.561 276.053 106.85 243.343 C 106.144 234.819 106.231 225.967 107.256 218.028 C 108.27 210.168 109.996 202.767 112.044 196.119 C 120.4 169.017 135.731 148.841 155.453 132.67 C 169.86 120.859 187.647 111.407 209.816 106.95 C 217.451 105.414 225.639 104.583 233.915 104.19 C 253.72 103.245 271.319 107.74 285.274 113.279 C 299.951 119.103 311.953 126.973 322.597 136.322 C 333.216 145.649 342.601 156.745 350.021 169.345 C 351.883 172.505 353.557 175.682 355.052 179.407 C 355.831 181.348 356.431 183.239 355.944 185.573 C 355.124 189.51 352.115 192.027 351.968 196.69 C 351.866 199.94 352.66 203.662 353.022 206.996 C 353.147 208.145 353.161 209.385 353.427 210.324 C 354.009 212.36 356.06 213.151 357.323 213.973 C 357.616 214.164 357.908 214.579 358.215 214.622 C 358.835 214.712 359.252 214.272 359.675 214.216 C 361.132 214.025 362.739 215.022 363.568 215.757 C 364.984 217.018 365.526 218.225 365.841 220.707 C 366.322 224.513 366.733 229.371 366.733 234.257 C 366.736 253.269 362.821 269.356 357.566 282.859 C 349.404 303.841 336.839 319.363 321.054 333.003 C 312.139 340.707 301.778 347.351 290.059 352.556 C 288.484 353.254 286.181 354.43 284.785 354.502 C 283.047 354.595 281.581 353.219 281.703 351.259 C 281.801 349.631 283.617 348.298 284.947 347.607 C 286.583 346.758 288.211 346.1 289.572 345.416 C 296.026 342.173 301.231 339.4 306.937 335.354 C 308.283 334.407 309.749 333.431 311.067 332.408 Z M 295.345 132.589 C 295.417 133.681 296.993 135.088 297.778 135.998 C 301.381 140.154 305.193 144.302 309.868 147.277 C 312.402 148.887 314.293 150.301 317.17 151.659 C 318.354 152.218 320.362 153.11 321.795 152.713 C 322.806 152.433 323.947 150.822 323.904 149.794 C 323.861 148.722 322.4 147.346 321.552 146.466 C 316.59 141.316 311.736 137.615 305.972 133.646 C 303.988 132.279 301.447 130.306 298.916 129.736 C 298.343 129.606 297.752 129.559 297.3 129.742 C 296.486 130.069 295.261 131.283 295.345 132.589 Z M 202.697 123.431 C 202.508 122.02 200.648 121.247 199.397 121.308 C 195.728 121.49 192.62 122.709 189.315 124.184 C 186.213 125.565 183.213 127.141 180.218 128.734 C 168.402 135.019 158.399 142.365 149.492 152.38 C 146.309 155.96 143.059 159.63 140.472 163.676 C 139.861 164.632 139.007 166.147 139.201 167.326 C 139.401 168.54 141.558 170.077 142.662 170.437 C 145.642 171.404 149.205 170.112 151.766 168.56 C 154.639 166.819 157.242 164.696 160.003 162.796 C 165.732 158.851 171.56 155.088 177.648 151.717 C 179.169 150.874 180.747 150.141 182.259 149.29 C 186.497 146.906 189.947 144.059 192.605 139.946 C 194.485 137.04 196.052 133.95 197.981 131.068 C 198.934 129.646 199.948 128.259 200.944 126.866 C 201.414 126.225 202.668 124.236 202.697 123.431 Z M 232.961 122.197 C 229.888 122.417 226.543 122.616 223.548 123.349 C 218.453 124.598 215.328 127.949 212.226 131.9 C 210.63 133.933 209.083 136.007 207.597 138.124 C 206.201 140.114 204.585 142.275 203.621 144.508 C 202.665 146.724 202.913 148.853 204.13 150.903 C 205.364 152.989 207.102 154.723 208.837 156.395 C 212.62 160.038 216.487 163.587 220.052 167.45 C 223.062 170.712 226.891 175.32 231.238 176.675 C 232.695 177.131 234.59 177.061 236.443 176.933 C 239.69 176.708 242.523 176.788 245.767 176.864 C 251.102 176.988 257.138 177.177 260.101 177.748 C 263.061 178.318 264.206 180.756 263.684 183.123 C 262.777 187.239 256.542 186.379 253.318 186.503 C 249.824 186.636 235.166 188.702 232.68 190.81 C 230.34 192.801 227.933 194.883 226.337 197.481 C 222.613 203.532 219.374 209.909 216.026 216.174 C 213.518 220.864 210.769 225.533 208.944 230.544 C 207.464 234.61 206.207 238.605 202.123 240.785 C 199.728 242.063 196.944 241.831 194.369 241.356 C 190.121 240.574 185.72 240.357 181.422 239.923 C 176.999 239.477 172.579 239.007 168.151 238.628 C 164.834 238.344 158.917 237.159 155.818 238.187 C 153.231 239.045 150.987 241.88 149.721 244.189 C 147.994 247.337 146.665 250.7 145.292 254.01 C 143.861 257.46 142.575 260.936 141.475 264.508 C 140.362 268.116 139.63 272.09 140.469 275.835 C 141.234 279.242 143.053 282.311 144.699 285.35 C 148.026 291.499 151.557 297.504 155.65 303.18 C 159.525 308.559 163.806 313.474 170.239 315.783 C 173.828 317.069 177.946 317.755 181.697 318.436 C 185.874 319.195 190.074 319.806 194.303 320.191 C 197.416 320.475 202.714 321.026 205.503 319.384 C 210.977 316.159 213.766 308.614 216.484 303.12 C 218.082 299.885 219.751 296.676 221.234 293.382 C 222.563 290.422 223.319 286.57 222.021 283.476 C 220.721 280.383 219.551 277.495 217.905 274.144 C 213.973 266.135 211.383 263.054 207.102 255.216 C 205.935 253.075 204.964 251.629 204.756 249.107 C 204.446 245.339 207.597 244.516 210.407 246.984 C 211.374 247.835 211.93 248.797 212.625 249.906 C 215.114 253.877 216.278 255.12 218.737 259.111 C 222.01 264.429 224.034 267.96 227.705 273.02 C 229.752 275.841 233.845 277.802 237.271 278.92 C 241.167 280.195 247.849 279.794 251.985 279.615 C 257.268 279.384 262.563 279.306 267.841 278.966 C 270.441 278.801 273.057 278.7 275.649 278.434 C 277.624 278.23 279.849 277.917 281.703 277.185 C 285.109 275.835 287.336 273.226 289.355 270.283 C 291.571 267.05 293.456 263.583 295.301 260.128 C 297.219 256.534 299.018 252.872 300.77 249.193 C 302.537 245.48 304.37 241.825 305.796 237.958 C 306.508 236.027 307.047 234.002 307.023 231.928 C 307.003 229.878 306.574 227.81 305.818 225.906 C 304.356 222.234 302.271 218.767 300.292 215.355 C 298.288 211.891 296.272 208.432 294.163 205.031 C 292.141 201.773 290.096 198.364 287.684 195.381 C 286.204 193.55 284.387 192.024 282.826 190.263 C 280.489 187.627 275.846 186.657 275.038 185.246 C 274.16 183.714 274.021 182.118 274.653 180.519 C 275.298 178.88 280.309 177.408 282.56 174.73 C 283.777 173.278 284.961 171.749 286.018 170.176 C 288.249 166.865 290.01 163.265 291.898 159.755 C 293.653 156.491 296.211 152.858 295.177 148.954 C 294.293 145.603 291.281 142.686 288.912 140.317 C 283.475 134.88 277.691 129.788 271 125.939 C 267.452 123.897 263.51 122.576 259.441 122.11 C 254.288 121.519 248.793 121.469 243.606 121.716 C 240.064 121.884 236.507 121.942 232.961 122.197 Z M 301.538 161.237 C 298.728 165.655 296.411 170.399 293.804 174.938 C 292.529 177.154 291.388 179.662 291.527 182.278 C 291.687 185.296 293.662 188.256 295.374 190.642 C 301.405 199.045 306.557 207.954 311.516 217.02 C 312.263 218.384 312.97 219.856 313.914 221.096 C 315.539 223.228 317.61 225.707 320.407 226.173 C 322.087 226.451 324.118 226.028 325.783 225.701 C 329.659 224.933 333.508 224.044 337.381 223.268 C 341.494 222.442 344.958 220.632 345.418 216.079 C 345.804 212.279 345.236 208.192 344.851 204.4 C 344.48 200.739 343.959 197.063 343.188 193.466 C 342.015 187.989 340.219 180.068 336.639 175.772 C 331.012 169.02 323.282 163.572 315.927 158.814 C 313.39 157.171 311.049 155.587 307.866 155.943 C 307.278 156.01 306.612 156.181 306.117 156.516 C 304.327 157.724 302.696 159.416 301.538 161.237 Z M 132.145 181.855 C 129.782 183.175 128.044 186.124 126.906 188.493 C 122.054 198.575 119.038 209.07 117.718 220.18 C 116.698 228.748 116.678 237.512 117.559 246.095 C 117.912 249.538 118.366 253.692 119.792 256.869 C 120.878 259.294 122.636 261.906 125.139 263.027 C 127.551 264.107 129.495 261.353 130.387 259.491 C 131.604 256.95 132.368 254.164 133.399 251.537 C 135.494 246.205 137.883 241.003 140.577 235.949 C 141.845 233.567 143.059 231.352 143.302 228.603 C 143.578 225.478 142.792 222.193 142.344 219.109 C 141.33 212.143 141.115 205.044 140.779 198.02 C 140.699 196.343 140.777 194.651 140.84 192.977 C 140.913 191.019 141.098 187.72 140.38 185.898 C 139.476 183.61 136.386 181.145 133.816 181.42 C 133.295 181.475 132.609 181.597 132.145 181.855 Z M 123.87 277.315 C 123.76 278.002 124.322 279.58 124.562 280.229 C 124.994 281.399 125.472 282.529 125.97 283.667 C 131.781 296.982 139.916 308.365 149.709 319.018 C 150.43 319.803 152.715 322.262 153.894 322.21 C 154.448 322.187 155.496 320.982 155.563 320.461 C 155.633 319.861 154.946 318.393 154.703 317.848 C 153.301 314.717 150.905 311.957 148.933 309.173 C 144.692 303.189 140.747 296.942 137.188 290.529 C 135.992 288.371 134.949 286.129 133.718 283.991 C 132.626 282.094 131.209 280.351 129.732 278.744 C 129.089 278.042 126.706 275.494 125.613 275.685 C 125.089 275.78 123.96 276.754 123.87 277.315 Z M 154.175 221.437 C 154.674 214.328 156.685 210.276 157.846 207.326 C 159.977 201.91 160.958 200.046 162.225 197.098 C 169.149 198.411 177.245 200.257 184.034 201.726 C 185.63 194.596 185.892 192.755 186.52 181.862 C 180.333 190.605 182.372 187.454 177.965 196.479 C 173.847 195.574 168.223 194.42 164.048 193.58 C 165.989 187.527 169.258 182.328 173.758 175.487 C 177.603 169.644 182.678 163.789 187.841 159.045 C 193.337 160.831 197.122 162.522 202.454 164.523 C 201.419 169.498 199.991 174.296 199.089 179.028 C 198.329 183.497 198.026 186.908 197.404 191.125 C 196.905 195.113 196.53 199.991 196.136 203.782 C 195.827 207.415 195.552 210.982 195.31 214.483 C 186.894 213.019 178.429 211.608 169.914 210.249 C 167.543 218.313 167.337 221.391 167.244 223.317 M 182.332 224.576 C 182.477 221.666 182.641 218.727 182.821 215.758 C 186.944 216.381 191.063 217.009 195.179 217.641 C 195.026 220.383 194.887 223.099 194.761 225.788 C 190.617 225.382 186.474 224.979 182.332 224.576" fill="#cbb26b" style=""/>
</svg>