<?xml version="1.0" encoding="UTF-8" standalone="no"?>
<svg
   viewBox="-1810.012 -678.592 2842.774 500"
   version="1.1"
   id="svg4"
   sodipodi:docname="header-logo.svg"
   inkscape:version="1.4.1-rc (06eac75fbf, 2025-03-29)"
   width="2842.7739"
   height="500"
   xmlns:inkscape="http://www.inkscape.org/namespaces/inkscape"
   xmlns:sodipodi="http://sodipodi.sourceforge.net/DTD/sodipodi-0.dtd"
   xmlns="http://www.w3.org/2000/svg"
   xmlns:svg="http://www.w3.org/2000/svg">
  <defs
     id="defs4" />
  <sodipodi:namedview
     id="namedview4"
     pagecolor="#ffffff"
     bordercolor="#666666"
     borderopacity="1.0"
     inkscape:showpageshadow="2"
     inkscape:pageopacity="0.0"
     inkscape:pagecheckerboard="0"
     inkscape:deskcolor="#d1d1d1"
     inkscape:zoom="0.38012462"
     inkscape:cx="1452.1553"
     inkscape:cy="658.99441"
     inkscape:window-width="1920"
     inkscape:window-height="940"
     inkscape:window-x="1920"
     inkscape:window-y="32"
     inkscape:window-maximized="1"
     inkscape:current-layer="svg4" />
  <g
     id="SvgjsG5864"
     featurekey="8L6ael-0"
     transform="matrix(21.428571,0,0,21.428571,-1227.1549,-707.16343)"
     fill="#cbb26b">
    <path
       d="M 3.46,20 V 9.36 H 5.98 V 20 Z M 0.8,8.52 V 6 h 7.84 v 2.52 z m 13.918,5.74 v -2.52 h 2.24 V 6 h 2.52 v 8.26 z M 11.358,20 V 6 h 2.52 v 14 z m 5.6,0 v -4.9 h 2.52 V 20 Z m 5.238,-5.74 V 6 h 2.52 v 8.26 z m 0,5.74 v -4.9 h 2.52 V 20 Z m 3.36,0 v -2.52 h 3.5 V 20 Z m 0,-5.74 v -2.52 h 2.38 v 2.52 z m 0,-5.74 V 6 h 3.5 V 8.52 Z M 36.292,20 l 1.14,-5.6 h 4.28 l -0.86,-4.28 -0.68,3.44 h -2.58 L 39.112,6 h 3.48 l 2.2,10.92 h -5.3 L 38.872,20 Z m 6.56,0 -0.46,-2.24 h 2.58 l 0.44,2.24 z m 4.878,-6.16 v -1.68 h 5.32 v 1.68 z M 58.428,20 V 9.36 h 2.52 V 20 Z M 55.768,8.52 V 6 h 7.84 v 2.52 z m 10.558,5.74 V 6 h 2.52 v 8.26 z m 0,5.74 v -4.9 h 2.52 V 20 Z m 3.36,0 v -2.52 h 3.5 V 20 Z m 0,-5.74 v -2.52 h 2.38 v 2.52 z m 0,-5.74 V 6 h 3.5 v 2.52 z m 5.818,11.48 1.14,-5.6 h 4.28 l -0.86,-4.28 -0.68,3.44 h -2.58 L 78.324,6 h 3.48 l 2.2,10.92 h -5.3 L 78.084,20 Z m 6.56,0 -0.46,-2.24 h 2.58 L 84.624,20 Z M 90.742,15.66 86.942,6 h 2.7 l 2.1,5.3 2.08,-5.3 h 2.7 l -3.8,9.66 z M 86.982,20 V 8.38 l 2.52,6.42 V 20 Z m 7,0 v -5.2 l 2.52,-6.42 V 20 Z"
       id="path2" />
  </g>
  <path
     fill-rule="evenodd"
     clip-rule="evenodd"
     d="m -1416.9218,-240.04503 c 1.7347,-1.75182 3.137,-3.61586 3.6544,-5.42336 1.0177,-3.13186 -1.9643,-7.94957 -2.6701,-9.15657 -0.807,-1.38004 -1.6807,-2.55277 -2.3695,-4.03818 -1.2524,-2.70954 -1.5359,-5.54071 -0.4677,-8.38303 2.0525,-5.45762 7.2043,-8.6443 12.4435,-10.54689 4.0673,-1.46913 8.3171,-2.83118 12.2276,-4.6678 6.5301,-3.06419 13.1331,-8.80022 17.7058,-14.32894 10.3918,-12.57198 18.696,-27.68644 25.5388,-42.45997 3.6767,-7.93844 7.0424,-16.10474 9.2174,-24.59399 2.3918,-9.33904 2.6136,-20.0307 1.446,-29.59332 -1.1067,-9.07262 -2.5193,-19.36423 -5.6692,-27.93658 -2.7361,-7.44844 -7.8416,-11.08572 -15.9805,-9.62858 -4.8288,0.86263 -9.6012,1.99082 -14.4077,2.94254 -4.6173,0.91831 -9.3956,1.66359 -13.9067,3.00936 -7.4484,2.22554 -12.1548,7.12121 -15.5367,13.95716 -3.8832,7.84934 -7.338,15.90428 -11.4378,23.64741 -4.0099,7.57094 -8.1826,15.05193 -12.3604,22.52864 -4.1384,7.40904 -8.7497,14.54138 -12.7271,22.03951 -1.9137,3.61585 -3.4376,7.18117 -3.6715,11.32043 -0.2613,4.60099 1.04,8.62803 2.4371,12.94975 2.8758,8.95098 5.6744,17.92937 8.1603,27.002 1.1788,4.29945 2.0363,8.90643 3.7153,13.0277 0.8189,2.00281 2.2478,4.08786 3.316,5.99645 3.2646,5.85253 4.589,11.64338 0.6228,17.6621 -4.4554,6.75371 -11.8935,9.47952 -18.4177,13.55025 -7.9607,4.96249 -15.5488,10.49721 -23.6037,15.31407 -8.3488,4.99589 -17.0051,9.60202 -25.7993,13.76784 -6.7477,3.19353 -17.4839,6.62521 -21.2891,13.47915 -0.5731,1.02882 -0.7118,3.68781 -0.8009,4.8674 -0.1217,1.57878 -0.251,3.16527 -0.5783,4.72263 -1.1795,5.64608 -9.1008,7.79366 -13.6676,8.69484 -0.1893,0.0608 -0.3786,0.11565 -0.5679,0.16619 -4.9445,1.30808 -11.598,1.52481 -17.9225,1.55822 -13.2899,0.072 -23.9764,-1.90773 -36.3085,-2.49196 -5.5407,-0.26727 -11.7376,-0.6399 -17.7675,-1.71327 -11.4421,-2.04221 -20.8154,-4.50075 -30.856,-7.94956 -5.2126,-1.79123 -9.9566,-3.37172 -12.9334,-6.39222 -3.1156,-3.15413 -1.4683,-8.54407 2.6478,-9.81189 3.0985,-0.95686 9.3005,1.82977 11.9989,2.64786 11.7153,3.55417 22.395,6.43589 35.9958,8.72739 8.0669,1.35777 16.4106,3.4274 26.4906,3.4274 5.324,0 10.1066,-0.15591 14.179,-0.77954 4.601,-0.70072 8.9673,-3.48136 10.1297,-7.94871 0.9183,-3.51563 -3.0145,-6.79826 -5.6075,-9.04007 -2.5751,-2.22469 -5.4902,-3.376 -8.4156,-4.67209 -12.4666,-5.52358 -22.9801,-11.22021 -33.9716,-18.3911 -5.5518,-3.62014 -11.4215,-6.7914 -17.4505,-8.7274 -6.7922,-2.18013 -15.0142,-1.92486 -23.6868,-2.49195 -15.5865,-1.02368 -31.6621,-3.52163 -45.3477,-7.01498 -3.4488,-0.87805 -8.0155,-2.07991 -11.2193,-0.62278 -4.01,1.82549 -7.6215,6.46417 -5.1399,11.37612 1.2405,2.45254 3.6604,4.94449 5.7686,7.32594 1.4794,1.66872 5.7078,5.65208 5.1398,8.57149 -0.6227,3.19354 -3.5824,6.66976 -7.4818,6.23116 -2.6093,-0.28954 -6.1746,-2.64786 -8.7283,-4.20522 -18.6232,-11.40352 -33.2811,-26.48972 -47.0601,-42.69983 -31.107,-36.58089 -54.01,-83.03535 -59.2157,-145.85497 -1.3569,-16.37115 -1.1907,-33.37193 0.7787,-48.61918 1.9471,-15.09648 5.2623,-29.30976 9.1951,-42.0762 16.049,-52.05086 45.4924,-90.79989 83.3694,-121.85719 27.6685,-22.68455 61.8294,-40.83579 104.4067,-49.397 14.6639,-2.94854 30.3891,-4.54445 46.2814,-5.30172 38.038,-1.81349 71.8374,6.82053 98.639,17.45565 28.1867,11.18766 51.2387,26.30127 71.6806,44.2572 20.3939,17.91309 38.4175,39.22275 52.6685,63.42183 3.5773,6.0684 6.7923,12.17021 9.6629,19.32397 1.4965,3.72722 2.6478,7.35936 1.7124,11.84298 -1.5737,7.56066 -7.3534,12.39466 -7.6369,21.34992 -0.1953,6.24144 1.3295,13.39006 2.0251,19.79255 0.2398,2.20841 0.2664,4.58985 0.7786,6.39221 1.1179,3.91054 5.0568,5.4285 7.4819,7.00813 0.5619,0.3675 1.123,1.16246 1.7133,1.24727 1.1907,0.17132 1.9916,-0.67418 2.8037,-0.77954 2.7978,-0.36664 5.886,1.54622 7.4767,2.95881 2.7199,2.42 3.7598,4.73977 4.3663,9.50694 0.9235,7.31052 1.7133,16.63842 1.7133,26.02286 0.01,36.51407 -7.5153,67.40947 -17.6064,93.34238 -15.6756,40.29697 -39.8062,70.10702 -70.1233,96.30206 -17.1225,14.79751 -37.0204,27.55881 -59.5276,37.55402 -3.0256,1.34064 -7.4476,3.59958 -10.1297,3.73836 -3.3375,0.17818 -6.1524,-2.46368 -5.9185,-6.23031 0.1893,-3.12672 3.6767,-5.68549 6.2312,-7.01413 3.1421,-1.63017 6.268,-2.89285 8.8824,-4.20607 12.3947,-6.22945 22.3899,-11.55344 33.3488,-19.32398 2.587,-1.81949 5.402,-3.69466 7.9333,-5.65807 z m -30.1947,-383.76223 c 0.1388,2.09704 3.1653,4.80059 4.673,6.54812 6.9199,7.98127 14.2407,15.94798 23.2182,21.66087 4.8674,3.09331 8.5004,5.80799 14.0231,8.41644 2.2761,1.07337 6.131,2.78664 8.8851,2.02423 1.9402,-0.53882 4.1324,-3.63213 4.0484,-5.60753 -0.083,-2.05764 -2.886,-4.6995 -4.517,-6.39135 -9.5284,-9.88986 -18.852,-16.99907 -29.9214,-24.62055 -3.8103,-2.62473 -8.6897,-6.41277 -13.5511,-7.50927 -1.1017,-0.25013 -2.2359,-0.33922 -3.1036,0.0111 -1.5634,0.62877 -3.9166,2.95967 -3.7547,5.4679 z m -177.9359,-17.58929 c -0.3615,-2.70868 -3.9328,-4.19408 -6.3365,-4.07758 -7.0476,0.35122 -13.0158,2.69241 -19.3626,5.52358 -5.9587,2.65386 -11.7213,5.68035 -17.4728,8.7394 -22.6905,12.0717 -41.9048,26.17876 -59.0101,45.41365 -6.113,6.87621 -12.3544,13.9246 -17.3229,21.69514 -1.1727,1.83576 -2.814,4.7449 -2.4414,7.00898 0.3838,2.33091 4.5282,5.28459 6.6475,5.97503 5.724,1.85804 12.5668,-0.62363 17.4831,-3.60472 5.5184,-3.34344 10.5194,-7.42188 15.8203,-11.07029 11.0035,-7.57694 22.1954,-14.8018 33.8893,-21.2771 2.9203,-1.61819 5.9511,-3.0265 8.8551,-4.66181 8.1389,-4.57872 14.7641,-10.04662 19.8705,-17.94565 3.6107,-5.57926 6.62,-11.51403 10.3241,-17.04961 1.8298,-2.73181 3.7769,-5.39594 5.6907,-8.07121 0.902,-1.22927 3.3109,-5.05072 3.3657,-6.59781 z m 58.1252,-2.3703 c -5.9022,0.42403 -12.3269,0.80695 -18.0792,2.2144 -9.7845,2.39772 -15.787,8.83362 -21.744,16.42169 -3.065,3.90454 -6.0359,7.8879 -8.8893,11.95434 -2.6813,3.82145 -5.7857,7.97099 -7.6378,12.26016 -1.8357,4.25491 -1.3577,8.34449 0.9792,12.28244 2.3694,4.00562 5.7069,7.33708 9.0392,10.54689 7.2651,6.99871 14.6913,13.81238 21.5384,21.23255 5.7797,6.26372 13.1339,15.11447 21.4835,17.71779 2.7986,0.87377 6.4368,0.73927 9.9969,0.49513 6.2355,-0.43431 11.6751,-0.2784 17.9063,-0.13363 10.2462,0.239 21.839,0.60136 27.5297,1.69699 5.6846,1.09564 7.8819,5.77972 6.8813,10.32417 -1.7415,7.90417 -13.7181,6.25258 -19.909,6.49158 -6.7084,0.25613 -34.8617,4.2215 -39.6348,8.27167 -4.4939,3.8223 -9.1172,7.82193 -12.1822,12.81097 -7.1538,11.62026 -13.373,23.87014 -19.8037,35.90158 -4.8169,9.00666 -10.0963,17.97392 -13.6008,27.59735 -2.8423,7.80995 -5.2572,15.48197 -13.1005,19.6692 -4.5993,2.4534 -9.9456,2.00967 -14.8909,1.09564 -8.1603,-1.50168 -16.6102,-1.91887 -24.8656,-2.75237 -8.4944,-0.85749 -16.9828,-1.75782 -25.4883,-2.48596 -6.3699,-0.54567 -17.7341,-2.82175 -23.686,-0.84635 -4.9684,1.64731 -9.279,7.09208 -11.7102,11.52517 -3.3151,6.04784 -5.8688,12.50515 -8.5055,18.86396 -2.7472,6.62521 -5.2169,13.30011 -7.3311,20.15919 -2.1356,6.93103 -3.5439,14.56365 -1.93,21.75596 1.4683,6.54127 4.9617,12.43834 8.1209,18.27374 6.3922,11.80957 13.1725,23.34159 21.033,34.24484 7.4424,10.32931 15.6644,19.76943 28.0197,24.20251 6.8916,2.47054 14.8026,3.78804 22.0069,5.09527 8.0207,1.45799 16.0868,2.63158 24.2085,3.37171 5.9793,0.54482 16.1545,1.60191 21.5101,-1.55136 10.5144,-6.19262 15.8709,-20.68346 21.0887,-31.23549 3.071,-6.21403 6.2748,-12.37666 9.1231,-18.70205 2.5537,-5.68463 4.0057,-13.08339 1.5137,-19.02415 -2.4979,-5.94163 -4.7457,-11.48748 -7.9059,-17.92338 -7.5538,-15.38088 -12.5265,-21.30023 -20.7485,-36.35217 -2.2418,-4.11099 -4.105,-6.88734 -4.5059,-11.73247 -0.5954,-7.23685 5.4576,-8.81649 10.8527,-4.07758 1.858,1.63531 2.9262,3.48222 4.2617,5.61353 4.7783,7.62576 7.0142,10.01235 11.7377,17.67838 6.2859,10.2128 10.1733,16.99392 17.2217,26.71159 3.9329,5.41822 11.7925,9.18398 18.374,11.33157 7.4819,2.4474 20.3151,1.67986 28.2587,1.33549 10.146,-0.44545 20.3142,-0.59536 30.4508,-1.2464 4.995,-0.31781 10.0183,-0.51227 14.9962,-1.02368 3.7941,-0.38977 8.0661,-0.99027 11.6263,-2.39772 6.5421,-2.59218 10.8193,-7.60435 14.6964,-13.25557 4.2558,-6.20804 7.8776,-12.86666 11.4207,-19.50387 3.6835,-6.90277 7.1366,-13.93403 10.5023,-20.99869 3.394,-7.13149 6.9148,-14.15162 9.6517,-21.57779 1.3681,-3.71008 2.4029,-7.5992 2.3584,-11.5817 -0.039,-3.93795 -0.8627,-7.91017 -2.3138,-11.56457 -2.8089,-7.05439 -6.8145,-13.71302 -10.6137,-20.26542 -3.8497,-6.65263 -7.7217,-13.29498 -11.771,-19.82596 -3.8832,-6.25772 -7.81,-12.80498 -12.4435,-18.53501 -2.8432,-3.51563 -6.3306,-6.44704 -9.3288,-9.82904 -4.4896,-5.06185 -13.4063,-6.92589 -14.9585,-9.63457 -1.6859,-2.94254 -1.9523,-6.00758 -0.7393,-9.07862 1.2395,-3.14813 10.863,-5.97417 15.1855,-11.11998 2.3369,-2.78663 4.6113,-5.72403 6.6424,-8.74453 4.2832,-6.35794 7.6652,-13.2727 11.2922,-20.01442 3.3708,-6.26971 8.2828,-13.24529 6.2971,-20.74342 -1.697,-6.4359 -7.4819,-12.03743 -12.0323,-16.58788 -10.4415,-10.44152 -21.5504,-20.22087 -34.3999,-27.61363 -6.8137,-3.92168 -14.3855,-6.45903 -22.2006,-7.35421 -9.8958,-1.13504 -20.4496,-1.23013 -30.4122,-0.75641 -6.8026,0.32209 -13.6334,0.43431 -20.4428,0.9226 z m 131.7043,74.98126 c -5.396,8.4824 -9.8471,17.59443 -14.8532,26.31155 -2.4474,4.25576 -4.6396,9.07262 -4.3723,14.09593 0.305,5.79599 4.099,11.48148 7.3876,16.06447 11.5817,16.1373 21.4767,33.24944 31.0008,50.66055 1.4357,2.62044 2.7926,5.44648 4.6061,7.82707 3.1199,4.09386 7.0972,8.85504 12.4709,9.75108 3.2269,0.53454 7.1263,-0.27841 10.3259,-0.90632 7.4424,-1.47427 14.8352,-3.1824 22.2725,-4.67295 7.899,-1.58477 14.5525,-5.06185 15.4366,-13.80724 0.7392,-7.29768 -0.3504,-15.14702 -1.0905,-22.42928 -0.7119,-7.0304 -1.7133,-14.08993 -3.1936,-20.99869 -2.2521,-10.51948 -5.7009,-25.73332 -12.5771,-33.98271 -10.8082,-12.96689 -25.6545,-23.42983 -39.7787,-32.57013 -4.8725,-3.15413 -9.3673,-6.19604 -15.4811,-5.51244 -1.1299,0.12764 -2.4089,0.45573 -3.3597,1.10163 -3.4386,2.31977 -6.5704,5.56813 -8.7942,9.06748 z m -325.3261,39.59539 c -4.5393,2.53649 -7.8767,8.19885 -10.0637,12.7493 -9.3168,19.36423 -15.1085,39.51743 -17.645,60.85706 -1.9574,16.45425 -1.9968,33.28713 -0.3058,49.76879 0.6793,6.61493 1.5522,14.59192 4.2892,20.69373 2.0859,4.65581 5.4627,9.67398 10.2693,11.82756 4.6327,2.07391 8.3659,-3.21666 10.0792,-6.79311 2.336,-4.87854 3.8043,-10.22994 5.7857,-15.27552 4.0211,-10.24022 8.6109,-20.23115 13.7841,-29.93768 2.4363,-4.57358 4.7672,-8.82848 5.2349,-14.10793 0.5277,-6.00158 -0.98,-12.3107 -1.8417,-18.23433 -1.9472,-13.37893 -2.3592,-27.01313 -3.0043,-40.5017 -0.1559,-3.22181 -0.01,-6.46931 0.1165,-9.68598 0.1388,-3.75977 0.496,-10.09544 -0.884,-13.5948 -1.7356,-4.39453 -7.6712,-9.12916 -12.6045,-8.59976 -1.0023,0.10623 -2.3207,0.33838 -3.2099,0.83437 z m -15.8931,183.33618 c -0.2116,1.31836 0.8678,4.35084 1.3295,5.59639 0.8292,2.24696 1.7467,4.41681 2.7035,6.60295 11.1594,25.57226 26.7844,47.43359 45.5919,67.89346 1.386,1.50682 5.7745,6.23031 8.0386,6.13008 1.0623,-0.0445 3.0762,-2.35917 3.2038,-3.35972 0.1345,-1.15217 -1.1847,-3.97222 -1.6515,-5.01731 -2.6933,-6.01358 -7.2926,-11.31444 -11.0823,-16.66155 -8.1432,-11.49176 -15.7193,-23.49065 -22.5561,-35.80649 -2.2975,-4.1444 -4.3003,-8.44985 -6.6638,-12.5557 -2.097,-3.64241 -4.8168,-6.99186 -7.654,-10.07917 -1.2353,-1.34663 -5.814,-6.2423 -7.9102,-5.8748 -1.0074,0.18332 -3.1772,2.0525 -3.3494,3.13186 z m 58.2015,-107.31753 c 0.9594,-13.65134 4.8203,-21.43301 7.051,-27.09965 4.093,-10.40041 5.975,-13.98114 8.4104,-19.64436 13.2975,2.52365 28.848,6.06926 41.8843,8.89016 3.0659,-13.69417 3.5688,-17.23121 4.774,-38.1511 -11.8815,16.79262 -7.9667,10.74049 -16.4294,28.07279 -7.9084,-1.7364 -18.7097,-3.95423 -26.7287,-5.56641 3.7281,-11.62711 10.0072,-21.60948 18.6507,-34.7494 7.3816,-11.22107 17.1292,-22.46612 27.0465,-31.57814 10.5538,3.42996 17.8223,6.67747 28.0634,10.52119 -1.9883,9.55576 -4.7287,18.76887 -6.4616,27.85691 -1.4606,8.58434 -2.0422,15.13589 -3.2372,23.23366 -0.9578,7.65917 -1.6791,17.02734 -2.4355,24.30873 -0.5936,6.9773 -1.1204,13.82695 -1.5847,20.55068 -16.163,-2.81062 -32.4228,-5.52101 -48.7751,-8.13204 -4.5539,15.48882 -4.9505,21.40046 -5.1296,25.09855 m 28.9783,2.41828 c 0.2801,-5.58868 0.5928,-11.23391 0.9389,-16.93396 7.9196,1.19586 15.8314,2.40115 23.7348,3.615 -0.293,5.26659 -0.5603,10.48093 -0.8036,15.64644 -7.9572,-0.77868 -15.9145,-1.55565 -23.8701,-2.32748"
     fill="#cbb26b"
     id="path4"
     style="stroke-width:0.856635" />
</svg>
